<svg width="225" height="209" viewBox="0 0 225 209" fill="none" xmlns="http://www.w3.org/2000/svg">
<path d="M202.667 74.8148C191.078 62.7587 177.764 52.8211 162.758 45.0794C154.605 40.877 145.936 39.0514 136.653 40.6703C129.47 41.9276 123.249 45.2258 117.544 49.3421C114.233 51.7361 111.981 51.9772 108.457 49.411C95.0351 39.6542 80.3407 36.709 64.8007 44.2785C47.5608 52.6747 32.6973 64.1883 19.9876 78.2594C13.4281 85.5189 11.0339 93.6481 14.7631 102.931C25.5058 129.722 43.885 149.89 70.7283 162.454C84.0254 168.68 98.3905 169.369 112.871 168.869C116.877 168.869 120.882 168.99 124.878 168.843C138.389 168.361 151.08 165.287 162.909 158.57C183.006 147.168 197.798 131.056 207.606 110.957C215.786 94.1992 215.065 87.7062 202.667 74.8062V74.8148ZM195.422 98.1174C186.299 119.474 172.263 136.628 150.582 147.186C141.068 151.819 132.621 152.981 110.655 152.981C98.9424 153.489 85.2537 152.731 72.7487 145.963C52.2335 134.863 38.4469 118.242 30.1785 97.1185C28.9769 94.0528 29.6623 91.4436 31.7538 89.1615C43.5824 76.3132 57.2177 65.6436 73.2026 58.0138C82.8595 53.4067 91.297 57.0235 99.2628 62.4918C110.842 70.4402 115.301 70.5521 126.72 62.3712C136.671 55.2409 146.693 53.7942 157.613 60.3217C170.768 68.1926 183.033 77.0624 193.384 88.2745C196.098 91.2197 197.068 94.2681 195.431 98.0916L195.422 98.1174Z" fill="white"/>
<path d="M175.675 94.9058C171.959 93.1194 168.092 91.7146 164.013 91.0209C152.271 89.0178 140.581 86.6244 128.68 90.4833C118.303 93.8479 107.865 93.4316 97.3196 90.6654C92.5748 89.4167 87.8744 86.9626 83.1828 88.4801C82.3491 88.4801 82.0476 88.4628 81.7549 88.4801C70.9971 89.2779 60.2659 90.2231 50.3329 94.8451C46.2177 96.7615 46.0049 97.8368 49.1888 101.106C51.1222 103.083 53.091 105.086 55.3082 106.743C82.8901 127.277 113.363 130.641 145.69 120.383C157.547 116.619 168.163 110.237 176.81 101.175C179.994 97.8368 179.781 96.8916 175.675 94.9145V94.9058Z" fill="white"/>
</svg>
