<svg width="187" height="187" viewBox="0 0 187 187" fill="none" xmlns="http://www.w3.org/2000/svg">
<g clip-path="url(#clip0_328_11)">
<path d="M133.866 170.239C130.451 170.239 127.081 169.635 123.895 168.494C125.189 165.84 126.138 163.025 126.706 160.125C127.884 160.313 129.126 160.416 130.413 160.416C134.103 160.416 137.468 159.593 139.929 158.238C142.371 156.892 144.029 154.952 144.029 152.691C144.029 150.43 142.371 148.49 139.928 147.144C137.468 145.789 134.102 144.966 130.413 144.966C126.994 144.966 123.859 145.673 121.463 146.853C119.229 147.954 117.564 149.507 117.007 151.35L116.6 151.382L116.638 151.88C117.011 156.718 115.837 161.542 113.364 165.649L111.896 167.346L111.896 167.347L111.855 167.394C111.731 167.538 111.614 167.674 111.492 167.805C106.866 172.8 100.308 175.667 93.4986 175.667C86.6898 175.667 80.1314 172.8 75.5061 167.806L75.5051 167.805C75.3945 167.687 75.2895 167.565 75.1772 167.434C75.1557 167.409 75.134 167.384 75.1119 167.358L75.1112 167.358L73.6449 165.666C71.1643 161.555 69.9857 156.725 70.3592 151.879L70.3976 151.381L69.9912 151.35C69.4339 149.506 67.7689 147.953 65.5347 146.852C63.1388 145.672 60.0035 144.966 56.5853 144.966C52.8952 144.966 49.5299 145.788 47.0694 147.144C44.6266 148.489 42.9691 150.429 42.9691 152.691C42.9691 154.952 44.6268 156.892 47.0696 158.237C49.5303 159.593 52.8955 160.416 56.5853 160.416C57.8719 160.416 59.1137 160.312 60.2921 160.124C60.8601 163.025 61.809 165.839 63.1028 168.494C59.9172 169.635 56.5472 170.238 53.1317 170.238C36.7977 170.238 23.5086 156.949 23.5086 140.615C23.5086 124.281 36.7977 110.992 53.1317 110.992C54.3513 110.992 55.4266 110.701 56.3966 110.047C57.3581 109.398 58.1832 108.414 58.947 107.082C60.4657 104.433 61.8129 100.275 63.4799 94.238C65.3913 87.3159 67.6836 77.7039 70.2928 65.6732C74.7182 45.2704 78.5953 24.6033 78.6341 24.3958L78.6367 24.3822L78.6384 24.3686L78.7059 23.8516L78.7076 23.8386L78.7086 23.8255C79.3023 16.1494 85.8003 10.1324 93.4999 10.1324C101.2 10.1324 107.697 16.1493 108.289 23.826L108.29 23.8392L108.292 23.8523L108.36 24.3692L108.361 24.3836L108.364 24.3979L108.374 24.4487C108.592 25.6061 112.388 45.766 116.705 65.6739C119.314 77.7046 121.607 87.3172 123.518 94.2387C125.185 100.276 126.532 104.434 128.051 107.083C128.815 108.415 129.64 109.399 130.602 110.047C131.572 110.702 132.647 110.993 133.866 110.993C150.2 110.993 163.489 124.282 163.489 140.616C163.49 156.949 150.201 170.239 133.866 170.239ZM174.122 140.616C174.122 119.337 157.526 101.862 136.6 100.452C134.82 96.1654 131.973 85.1742 128.796 71.1241C125.554 56.7884 121.981 39.3275 118.865 22.7053C117.703 9.66612 106.622 -0.5 93.4999 -0.5C80.3778 -0.5 69.297 9.66613 68.135 22.7053C65.019 39.3275 61.4459 56.7884 58.204 71.1241C55.0268 85.1742 52.1797 96.1654 50.4 100.452C29.4736 101.863 12.8774 119.337 12.8774 140.616C12.8774 162.814 30.9354 180.871 53.133 180.871C58.7644 180.871 64.3104 179.681 69.4186 177.419C75.7509 183.834 84.4613 187.501 93.4999 187.501C102.539 187.501 111.249 183.834 117.581 177.419C122.689 179.681 128.236 180.871 133.867 180.871C156.064 180.871 174.122 162.814 174.122 140.616Z" fill="white" stroke="white"/>
</g>
<defs>
<clipPath id="clip0_328_11">
<rect width="187" height="187" fill="white"/>
</clipPath>
</defs>
</svg>
